<?xml version="1.0" encoding="utf-8"?>
<svg viewBox="0 0 500 200" xmlns="http://www.w3.org/2000/svg">
  <rect width="500" height="200" style="">
    <title>Background</title>
  </rect>
  <g style="" transform="matrix(0.93185, 0, 0, 0.93185, 17.058443, 7.79157)">
    <title>ASCII Art Logo</title>
    <path d="M 29.037 8.209 C 29.037 8 29.095 7.838 29.213 7.724 C 29.331 7.61 29.487 7.552 29.683 7.552 C 29.892 7.552 30.055 7.61 30.173 7.724 C 30.29 7.838 30.349 8 30.349 8.209 C 30.349 8.398 30.29 8.554 30.173 8.678 C 30.055 8.803 29.892 8.865 29.683 8.865 C 29.487 8.865 29.331 8.803 29.213 8.678 C 29.095 8.554 29.037 8.398 29.037 8.209 Z M 33.895 5.565 L 37.244 5.565 L 37.244 6.289 L 33.895 6.289 L 33.895 5.565 Z M 39.768 5.565 L 43.117 5.565 L 43.117 6.289 L 39.768 6.289 L 39.768 5.565 Z M 45.645 5.565 L 48.994 5.565 L 48.994 6.289 L 45.645 6.289 L 45.645 5.565 Z M 51.518 5.565 L 54.866 5.565 L 54.866 6.289 L 51.518 6.289 L 51.518 5.565 Z M 57.394 5.565 L 60.743 5.565 L 60.743 6.289 L 57.394 6.289 L 57.394 5.565 Z M 63.267 5.565 L 66.616 5.565 L 66.616 6.289 L 63.267 6.289 L 63.267 5.565 Z M 69.144 5.565 L 72.493 5.565 L 72.493 6.289 L 69.144 6.289 L 69.144 5.565 Z M 75.017 5.565 L 78.365 5.565 L 78.365 6.289 L 75.017 6.289 L 75.017 5.565 Z M 80.893 5.565 L 84.243 5.565 L 84.243 6.289 L 80.893 6.289 L 80.893 5.565 Z M 86.766 5.565 L 90.115 5.565 L 90.115 6.289 L 86.766 6.289 L 86.766 5.565 Z M 92.643 5.565 L 95.993 5.565 L 95.993 6.289 L 92.643 6.289 L 92.643 5.565 Z M 98.516 5.565 L 101.865 5.565 L 101.865 6.289 L 98.516 6.289 L 98.516 5.565 Z M 104.393 5.565 L 107.742 5.565 L 107.742 6.289 L 104.393 6.289 L 104.393 5.565 Z M 110.265 5.565 L 113.615 5.565 L 113.615 6.289 L 110.265 6.289 L 110.265 5.565 Z M 116.143 5.565 L 119.492 5.565 L 119.492 6.289 L 116.143 6.289 L 116.143 5.565 Z M 122.015 5.565 L 125.364 5.565 L 125.364 6.289 L 122.015 6.289 L 122.015 5.565 Z M 127.892 5.565 L 131.241 5.565 L 131.241 6.289 L 127.892 6.289 L 127.892 5.565 Z M 133.765 5.565 L 137.114 5.565 L 137.114 6.289 L 133.765 6.289 L 133.765 5.565 Z M 139.642 5.565 L 142.991 5.565 L 142.991 6.289 L 139.642 6.289 L 139.642 5.565 Z M 145.515 5.565 L 148.863 5.565 L 148.863 6.289 L 145.515 6.289 L 145.515 5.565 Z M 151.392 5.565 L 154.74 5.565 L 154.74 6.289 L 151.392 6.289 L 151.392 5.565 Z M 157.264 5.565 L 160.613 5.565 L 160.613 6.289 L 157.264 6.289 L 157.264 5.565 Z M 163.141 5.565 L 166.49 5.565 L 166.49 6.289 L 163.141 6.289 L 163.141 5.565 Z M 169.014 5.565 L 172.362 5.565 L 172.362 6.289 L 169.014 6.289 L 169.014 5.565 Z M 174.886 5.565 L 178.235 5.565 L 178.235 6.289 L 174.886 6.289 L 174.886 5.565 Z M 180.763 5.565 L 184.112 5.565 L 184.112 6.289 L 180.763 6.289 L 180.763 5.565 Z M 186.636 5.565 L 189.985 5.565 L 189.985 6.289 L 186.636 6.289 L 186.636 5.565 Z M 192.513 5.565 L 195.862 5.565 L 195.862 6.289 L 192.513 6.289 L 192.513 5.565 Z M 198.385 5.565 L 201.734 5.565 L 201.734 6.289 L 198.385 6.289 L 198.385 5.565 Z M 204.262 5.565 L 207.611 5.565 L 207.611 6.289 L 204.262 6.289 L 204.262 5.565 Z M 210.135 5.565 L 213.484 5.565 L 213.484 6.289 L 210.135 6.289 L 210.135 5.565 Z M 216.012 5.565 L 219.361 5.565 L 219.361 6.289 L 216.012 6.289 L 216.012 5.565 Z M 221.884 5.565 L 225.234 5.565 L 225.234 6.289 L 221.884 6.289 L 221.884 5.565 Z M 227.762 5.565 L 231.111 5.565 L 231.111 6.289 L 227.762 6.289 L 227.762 5.565 Z M 233.634 5.565 L 236.983 5.565 L 236.983 6.289 L 233.634 6.289 L 233.634 5.565 Z M 239.511 5.565 L 242.86 5.565 L 242.86 6.289 L 239.511 6.289 L 239.511 5.565 Z M 245.384 5.565 L 248.733 5.565 L 248.733 6.289 L 245.384 6.289 L 245.384 5.565 Z M 251.261 5.565 L 254.61 5.565 L 254.61 6.289 L 251.261 6.289 L 251.261 5.565 Z M 257.134 5.565 L 260.483 5.565 L 260.483 6.289 L 257.134 6.289 L 257.134 5.565 Z M 263.011 5.565 L 266.359 5.565 L 266.359 6.289 L 263.011 6.289 L 263.011 5.565 Z M 268.883 5.565 L 272.232 5.565 L 272.232 6.289 L 268.883 6.289 L 268.883 5.565 Z M 274.76 5.565 L 278.109 5.565 L 278.109 6.289 L 274.76 6.289 L 274.76 5.565 Z M 280.633 5.565 L 283.982 5.565 L 283.982 6.289 L 280.633 6.289 L 280.633 5.565 Z M 286.51 5.565 L 289.858 5.565 L 289.858 6.289 L 286.51 6.289 L 286.51 5.565 Z M 292.383 5.565 L 295.731 5.565 L 295.731 6.289 L 292.383 6.289 L 292.383 5.565 Z M 298.259 5.565 L 301.608 5.565 L 301.608 6.289 L 298.259 6.289 L 298.259 5.565 Z M 304.132 5.565 L 307.481 5.565 L 307.481 6.289 L 304.132 6.289 L 304.132 5.565 Z M 310.009 5.565 L 313.358 5.565 L 313.358 6.289 L 310.009 6.289 L 310.009 5.565 Z M 315.882 5.565 L 319.23 5.565 L 319.23 6.289 L 315.882 6.289 L 315.882 5.565 Z M 321.754 5.565 L 325.103 5.565 L 325.103 6.289 L 321.754 6.289 L 321.754 5.565 Z M 327.631 5.565 L 330.98 5.565 L 330.98 6.289 L 327.631 6.289 L 327.631 5.565 Z M 333.504 5.565 L 336.852 5.565 L 336.852 6.289 L 333.504 6.289 L 333.504 5.565 Z M 339.381 5.565 L 342.73 5.565 L 342.73 6.289 L 339.381 6.289 L 339.381 5.565 Z M 345.253 5.565 L 348.602 5.565 L 348.602 6.289 L 345.253 6.289 L 345.253 5.565 Z M 351.13 5.565 L 354.48 5.565 L 354.48 6.289 L 351.13 6.289 L 351.13 5.565 Z M 357.003 5.565 L 360.352 5.565 L 360.352 6.289 L 357.003 6.289 L 357.003 5.565 Z M 362.88 5.565 L 366.229 5.565 L 366.229 6.289 L 362.88 6.289 L 362.88 5.565 Z M 368.752 5.565 L 372.102 5.565 L 372.102 6.289 L 368.752 6.289 L 368.752 5.565 Z M 374.63 5.565 L 377.979 5.565 L 377.979 6.289 L 374.63 6.289 L 374.63 5.565 Z M 380.502 5.565 L 383.851 5.565 L 383.851 6.289 L 380.502 6.289 L 380.502 5.565 Z M 386.379 5.565 L 389.728 5.565 L 389.728 6.289 L 386.379 6.289 L 386.379 5.565 Z M 392.252 5.565 L 395.601 5.565 L 395.601 6.289 L 392.252 6.289 L 392.252 5.565 Z M 398.129 5.565 L 401.478 5.565 L 401.478 6.289 L 398.129 6.289 L 398.129 5.565 Z M 404.002 5.565 L 407.35 5.565 L 407.35 6.289 L 404.002 6.289 L 404.002 5.565 Z M 409.879 5.565 L 413.227 5.565 L 413.227 6.289 L 409.879 6.289 L 409.879 5.565 Z M 415.751 5.565 L 419.1 5.565 L 419.1 6.289 L 415.751 6.289 L 415.751 5.565 Z M 421.628 5.565 L 424.977 5.565 L 424.977 6.289 L 421.628 6.289 L 421.628 5.565 Z M 427.501 5.565 L 430.849 5.565 L 430.849 6.289 L 427.501 6.289 L 427.501 5.565 Z M 433.378 5.565 L 436.726 5.565 L 436.726 6.289 L 433.378 6.289 L 433.378 5.565 Z M 439.25 5.565 L 442.599 5.565 L 442.599 6.289 L 439.25 6.289 L 439.25 5.565 Z M 445.123 5.565 L 448.472 5.565 L 448.472 6.289 L 445.123 6.289 L 445.123 5.565 Z M 451 5.565 L 454.349 5.565 L 454.349 6.289 L 451 6.289 L 451 5.565 Z M 456.873 5.565 L 460.221 5.565 L 460.221 6.289 L 456.873 6.289 L 456.873 5.565 Z M 462.749 5.565 L 466.098 5.565 L 466.098 6.289 L 462.749 6.289 L 462.749 5.565 Z M 469.64 8.209 C 469.64 8 469.699 7.838 469.817 7.724 C 469.934 7.61 470.091 7.552 470.287 7.552 C 470.496 7.552 470.659 7.61 470.776 7.724 C 470.894 7.838 470.952 8 470.952 8.209 C 470.952 8.398 470.894 8.554 470.776 8.678 C 470.659 8.803 470.496 8.865 470.287 8.865 C 470.091 8.865 469.934 8.803 469.817 8.678 C 469.699 8.554 469.64 8.398 469.64 8.209 Z" style="fill: rgb(0, 255, 0); white-space: pre;"/>
    <path style="fill: rgb(0, 255, 0); white-space: pre;"/>
    <path d="M 25.298 11.567 L 25.916 11.842 L 22.342 19.91 L 21.724 19.636 L 25.298 11.567 Z M 40.786 18.001 C 40.786 17.792 40.845 17.63 40.963 17.516 C 41.08 17.402 41.237 17.344 41.432 17.344 C 41.642 17.344 41.805 17.402 41.922 17.516 C 42.039 17.63 42.098 17.792 42.098 18.001 C 42.098 18.19 42.039 18.347 41.922 18.47 C 41.805 18.595 41.642 18.657 41.432 18.657 C 41.237 18.657 41.08 18.595 40.963 18.47 C 40.845 18.347 40.786 18.19 40.786 18.001 Z M 45.645 15.357 L 48.993 15.357 L 48.993 16.081 L 45.645 16.081 L 45.645 15.357 Z M 52.536 18.001 C 52.536 17.792 52.595 17.63 52.712 17.516 C 52.83 17.402 52.987 17.344 53.182 17.344 C 53.391 17.344 53.554 17.402 53.672 17.516 C 53.789 17.63 53.848 17.792 53.848 18.001 C 53.848 18.19 53.789 18.347 53.672 18.47 C 53.554 18.595 53.391 18.657 53.182 18.657 C 52.987 18.657 52.83 18.595 52.712 18.47 C 52.595 18.347 52.536 18.19 52.536 18.001 Z M 80.179 19.861 L 84.957 19.861 L 84.957 20.547 L 80.179 20.547 L 80.179 19.861 Z M 86.052 19.861 L 90.83 19.861 L 90.83 20.547 L 86.052 20.547 L 86.052 19.861 Z M 91.929 19.861 L 96.707 19.861 L 96.707 20.547 L 91.929 20.547 L 91.929 19.861 Z M 97.801 19.861 L 102.58 19.861 L 102.58 20.547 L 97.801 20.547 L 97.801 19.861 Z M 103.678 19.861 L 108.456 19.861 L 108.456 20.547 L 103.678 20.547 L 103.678 19.861 Z M 109.551 19.861 L 114.329 19.861 L 114.329 20.547 L 109.551 20.547 L 109.551 19.861 Z M 115.428 19.861 L 120.206 19.861 L 120.206 20.547 L 115.428 20.547 L 115.428 19.861 Z M 121.3 19.861 L 126.079 19.861 L 126.079 20.547 L 121.3 20.547 L 121.3 19.861 Z M 138.927 19.861 L 143.706 19.861 L 143.706 20.547 L 138.927 20.547 L 138.927 19.861 Z M 144.799 19.861 L 149.578 19.861 L 149.578 20.547 L 144.799 20.547 L 144.799 19.861 Z M 150.677 19.861 L 155.455 19.861 L 155.455 20.547 L 150.677 20.547 L 150.677 19.861 Z M 168.299 19.861 L 173.078 19.861 L 173.078 20.547 L 168.299 20.547 L 168.299 19.861 Z M 174.171 19.861 L 178.95 19.861 L 178.95 20.547 L 174.171 20.547 L 174.171 19.861 Z M 180.049 19.861 L 184.827 19.861 L 184.827 20.547 L 180.049 20.547 L 180.049 19.861 Z M 185.921 19.861 L 190.7 19.861 L 190.7 20.547 L 185.921 20.547 L 185.921 19.861 Z M 191.798 19.861 L 196.577 19.861 L 196.577 20.547 L 191.798 20.547 L 191.798 19.861 Z M 203.548 19.861 L 208.326 19.861 L 208.326 20.547 L 203.548 20.547 L 203.548 19.861 Z M 209.421 19.861 L 214.199 19.861 L 214.199 20.547 L 209.421 20.547 L 209.421 19.861 Z M 215.297 19.861 L 220.076 19.861 L 220.076 20.547 L 215.297 20.547 L 215.297 19.861 Z M 221.17 19.861 L 225.948 19.861 L 225.948 20.547 L 221.17 20.547 L 221.17 19.861 Z M 227.047 19.861 L 231.825 19.861 L 231.825 20.547 L 227.047 20.547 L 227.047 19.861 Z M 232.92 19.861 L 237.698 19.861 L 237.698 20.547 L 232.92 20.547 L 232.92 19.861 Z M 256.419 19.861 L 261.197 19.861 L 261.197 20.547 L 256.419 20.547 L 256.419 19.861 Z M 262.295 19.861 L 267.074 19.861 L 267.074 20.547 L 262.295 20.547 L 262.295 19.861 Z M 268.168 19.861 L 272.947 19.861 L 272.947 20.547 L 268.168 20.547 L 268.168 19.861 Z M 274.045 19.861 L 278.824 19.861 L 278.824 20.547 L 274.045 20.547 L 274.045 19.861 Z M 279.918 19.861 L 284.696 19.861 L 284.696 20.547 L 279.918 20.547 L 279.918 19.861 Z M 285.795 19.861 L 290.574 19.861 L 290.574 20.547 L 285.795 20.547 L 285.795 19.861 Z M 291.667 19.861 L 296.446 19.861 L 296.446 20.547 L 291.667 20.547 L 291.667 19.861 Z M 297.545 19.861 L 302.323 19.861 L 302.323 20.547 L 297.545 20.547 L 297.545 19.861 Z M 315.167 19.861 L 319.946 19.861 L 319.946 20.547 L 315.167 20.547 L 315.167 19.861 Z M 321.039 19.861 L 325.818 19.861 L 325.818 20.547 L 321.039 20.547 L 321.039 19.861 Z M 326.917 19.861 L 331.695 19.861 L 331.695 20.547 L 326.917 20.547 L 326.917 19.861 Z M 332.789 19.861 L 337.568 19.861 L 337.568 20.547 L 332.789 20.547 L 332.789 19.861 Z M 338.666 19.861 L 343.445 19.861 L 343.445 20.547 L 338.666 20.547 L 338.666 19.861 Z M 344.539 19.861 L 349.317 19.861 L 349.317 20.547 L 344.539 20.547 L 344.539 19.861 Z M 350.416 19.861 L 355.194 19.861 L 355.194 20.547 L 350.416 20.547 L 350.416 19.861 Z M 356.288 19.861 L 361.067 19.861 L 361.067 20.547 L 356.288 20.547 L 356.288 19.861 Z M 446.141 18.001 C 446.141 17.792 446.2 17.63 446.318 17.516 C 446.435 17.402 446.592 17.344 446.788 17.344 C 446.997 17.344 447.16 17.402 447.277 17.516 C 447.394 17.63 447.453 17.792 447.453 18.001 C 447.453 18.19 447.394 18.347 447.277 18.47 C 447.16 18.595 446.997 18.657 446.788 18.657 C 446.592 18.657 446.435 18.595 446.318 18.47 C 446.2 18.347 446.141 18.19 446.141 18.001 Z M 451 15.357 L 454.349 15.357 L 454.349 16.081 L 451 16.081 L 451 15.357 Z M 457.891 18.001 C 457.891 17.792 457.95 17.63 458.067 17.516 C 458.185 17.402 458.342 17.344 458.537 17.344 C 458.746 17.344 458.909 17.402 459.027 17.516 C 459.144 17.63 459.203 17.792 459.203 18.001 C 459.203 18.19 459.144 18.347 459.027 18.47 C 458.909 18.595 458.746 18.657 458.537 18.657 C 458.342 18.657 458.185 18.595 458.067 18.47 C 457.95 18.347 457.891 18.19 457.891 18.001 Z M 478.308 19.626 L 477.662 19.91 L 474.039 11.842 L 474.695 11.567 L 478.308 19.626 Z" style="fill: rgb(0, 255, 0); white-space: pre;"/>
    <path style="fill: rgb(0, 255, 0); white-space: pre;"/>
    <path d="M 17.615 21.477 L 18.28 21.477 L 18.28 29.604 L 17.615 29.604 L 17.615 21.477 Z M 37.048 21.359 L 37.665 21.634 L 34.091 29.702 L 33.474 29.428 L 37.048 21.359 Z M 61.204 29.418 L 60.557 29.702 L 56.934 21.634 L 57.59 21.359 L 61.204 29.418 Z M 76.358 21.477 L 77.024 21.477 L 77.024 29.604 L 76.358 29.604 L 76.358 21.477 Z M 84.703 29.418 L 84.057 29.702 L 80.434 21.634 L 81.089 21.359 L 84.703 29.418 Z M 103.678 29.653 L 108.456 29.653 L 108.456 30.339 L 103.678 30.339 L 103.678 29.653 Z M 109.551 29.653 L 114.329 29.653 L 114.329 30.339 L 109.551 30.339 L 109.551 29.653 Z M 131.701 29.418 L 131.055 29.702 L 127.432 21.634 L 128.088 21.359 L 131.701 29.418 Z M 135.106 21.477 L 135.772 21.477 L 135.772 29.604 L 135.106 29.604 L 135.106 21.477 Z M 143.451 29.418 L 142.804 29.702 L 139.181 21.634 L 139.838 21.359 L 143.451 29.418 Z M 161.073 29.418 L 160.427 29.702 L 156.804 21.634 L 157.46 21.359 L 161.073 29.418 Z M 164.483 21.477 L 165.148 21.477 L 165.148 29.604 L 164.483 29.604 L 164.483 21.477 Z M 172.823 29.418 L 172.176 29.702 L 168.553 21.634 L 169.21 21.359 L 172.823 29.418 Z M 191.798 29.653 L 196.577 29.653 L 196.577 30.339 L 191.798 30.339 L 191.798 29.653 Z M 208.071 29.418 L 207.426 29.702 L 203.802 21.634 L 204.458 21.359 L 208.071 29.418 Z M 221.17 29.653 L 225.948 29.653 L 225.948 30.339 L 221.17 30.339 L 221.17 29.653 Z M 249.193 29.418 L 248.547 29.702 L 244.924 21.634 L 245.579 21.359 L 249.193 29.418 Z M 252.602 21.477 L 253.268 21.477 L 253.268 29.604 L 252.602 29.604 L 252.602 21.477 Z M 260.943 29.418 L 260.296 29.702 L 256.673 21.634 L 257.329 21.359 L 260.943 29.418 Z M 279.918 29.653 L 284.696 29.653 L 284.696 30.339 L 279.918 30.339 L 279.918 29.653 Z M 285.795 29.653 L 290.574 29.653 L 290.574 30.339 L 285.795 30.339 L 285.795 29.653 Z M 307.941 29.418 L 307.295 29.702 L 303.671 21.634 L 304.328 21.359 L 307.941 29.418 Z M 311.35 21.477 L 312.016 21.477 L 312.016 29.604 L 311.35 29.604 L 311.35 21.477 Z M 319.691 29.418 L 319.044 29.702 L 315.421 21.634 L 316.078 21.359 L 319.691 29.418 Z M 338.666 29.653 L 343.445 29.653 L 343.445 30.339 L 338.666 30.339 L 338.666 29.653 Z M 344.539 29.653 L 349.317 29.653 L 349.317 30.339 L 344.539 30.339 L 344.539 29.653 Z M 350.416 29.653 L 355.194 29.653 L 355.194 30.339 L 350.416 30.339 L 350.416 29.653 Z M 372.561 29.418 L 371.916 29.702 L 368.293 21.634 L 368.948 21.359 L 372.561 29.418 Z M 442.403 21.359 L 443.02 21.634 L 439.446 29.702 L 438.829 29.428 L 442.403 21.359 Z M 466.559 29.418 L 465.913 29.702 L 462.289 21.634 L 462.945 21.359 L 466.559 29.418 Z M 481.713 21.477 L 482.379 21.477 L 482.379 29.604 L 481.713 29.604 L 481.713 21.477 Z" style="fill: rgb(0, 255, 0); white-space: pre;"/>
    <path style="fill: rgb(0, 255, 0); white-space: pre;"/>
    <path d="M 17.615 31.269 L 18.28 31.269 L 18.28 39.396 L 17.615 39.396 L 17.615 31.269 Z M 29.36 31.269 L 30.026 31.269 L 30.026 39.396 L 29.36 39.396 L 29.36 31.269 Z M 37.705 39.211 L 37.058 39.494 L 33.435 31.426 L 34.091 31.151 L 37.705 39.211 Z M 39.053 39.445 L 43.832 39.445 L 43.832 40.131 L 39.053 40.131 L 39.053 39.445 Z M 46.663 37.585 C 46.663 37.376 46.722 37.214 46.84 37.1 C 46.957 36.986 47.114 36.929 47.31 36.929 C 47.519 36.929 47.682 36.986 47.799 37.1 C 47.917 37.214 47.975 37.376 47.975 37.585 C 47.975 37.774 47.917 37.931 47.799 38.055 C 47.682 38.179 47.519 38.241 47.31 38.241 C 47.114 38.241 46.957 38.179 46.84 38.055 C 46.722 37.931 46.663 37.774 46.663 37.585 Z M 64.609 31.269 L 65.274 31.269 L 65.274 39.396 L 64.609 39.396 L 64.609 31.269 Z M 78.826 39.211 L 78.18 39.494 L 74.556 31.426 L 75.213 31.151 L 78.826 39.211 Z M 90.575 39.211 L 89.929 39.494 L 86.306 31.426 L 86.962 31.151 L 90.575 39.211 Z M 108.202 39.211 L 107.556 39.494 L 103.933 31.426 L 104.589 31.151 L 108.202 39.211 Z M 111.607 31.269 L 112.273 31.269 L 112.273 39.396 L 111.607 39.396 L 111.607 31.269 Z M 119.952 39.211 L 119.305 39.494 L 115.682 31.426 L 116.338 31.151 L 119.952 39.211 Z M 137.574 39.211 L 136.928 39.494 L 133.305 31.426 L 133.961 31.151 L 137.574 39.211 Z M 149.324 39.211 L 148.677 39.494 L 145.054 31.426 L 145.71 31.151 L 149.324 39.211 Z M 166.95 39.211 L 166.304 39.494 L 162.681 31.426 L 163.337 31.151 L 166.95 39.211 Z M 178.696 39.211 L 178.049 39.494 L 174.426 31.426 L 175.082 31.151 L 178.696 39.211 Z M 196.322 39.211 L 195.676 39.494 L 192.053 31.426 L 192.709 31.151 L 196.322 39.211 Z M 202.195 39.211 L 201.548 39.494 L 197.925 31.426 L 198.582 31.151 L 202.195 39.211 Z M 208.072 39.211 L 207.426 39.494 L 203.802 31.426 L 204.458 31.151 L 208.072 39.211 Z M 209.421 39.445 L 214.199 39.445 L 214.199 40.131 L 209.421 40.131 L 209.421 39.445 Z M 215.297 39.445 L 220.076 39.445 L 220.076 40.131 L 215.297 40.131 L 215.297 39.445 Z M 225.694 39.211 L 225.048 39.494 L 221.425 31.426 L 222.081 31.151 L 225.694 39.211 Z M 237.443 39.211 L 236.797 39.494 L 233.174 31.426 L 233.83 31.151 L 237.443 39.211 Z M 255.07 39.211 L 254.424 39.494 L 250.801 31.426 L 251.457 31.151 L 255.07 39.211 Z M 266.82 39.211 L 266.173 39.494 L 262.55 31.426 L 263.206 31.151 L 266.82 39.211 Z M 284.442 39.211 L 283.795 39.494 L 280.172 31.426 L 280.829 31.151 L 284.442 39.211 Z M 287.852 31.269 L 288.517 31.269 L 288.517 39.396 L 287.852 39.396 L 287.852 31.269 Z M 296.192 39.211 L 295.545 39.494 L 291.922 31.426 L 292.578 31.151 L 296.192 39.211 Z M 313.818 39.211 L 313.172 39.494 L 309.549 31.426 L 310.205 31.151 L 313.818 39.211 Z M 325.564 39.211 L 324.917 39.494 L 321.294 31.426 L 321.95 31.151 L 325.564 39.211 Z M 343.19 39.211 L 342.544 39.494 L 338.921 31.426 L 339.577 31.151 L 343.19 39.211 Z M 349.063 39.211 L 348.416 39.494 L 344.793 31.426 L 345.449 31.151 L 349.063 39.211 Z M 360.812 39.211 L 360.166 39.494 L 356.543 31.426 L 357.199 31.151 L 360.812 39.211 Z M 378.439 39.211 L 377.793 39.494 L 374.17 31.426 L 374.825 31.151 L 378.439 39.211 Z M 434.719 31.269 L 435.385 31.269 L 435.385 39.396 L 434.719 39.396 L 434.719 31.269 Z M 465.903 31.151 L 466.519 31.426 L 462.945 39.494 L 462.328 39.22 L 465.903 31.151 Z M 469.964 31.269 L 470.629 31.269 L 470.629 39.396 L 469.964 39.396 L 469.964 31.269 Z M 481.713 31.269 L 482.379 31.269 L 482.379 39.396 L 481.713 39.396 L 481.713 31.269 Z" style="fill: rgb(0, 255, 0); white-space: pre;"/>
    <path style="fill: rgb(0, 255, 0); white-space: pre;"/>
    <path d="M 17.615 41.061 L 18.28 41.061 L 18.28 49.189 L 17.615 49.189 L 17.615 41.061 Z M 25.955 49.003 L 25.308 49.287 L 21.685 41.218 L 22.342 40.943 L 25.955 49.003 Z M 29.36 41.061 L 30.026 41.061 L 30.026 49.189 L 29.36 49.189 L 29.36 41.061 Z M 46.987 41.061 L 47.652 41.061 L 47.652 49.189 L 46.987 49.189 L 46.987 41.061 Z M 60.548 40.943 L 61.165 41.218 L 57.591 49.287 L 56.973 49.013 L 60.548 40.943 Z M 64.609 41.061 L 65.274 41.061 L 65.274 49.189 L 64.609 49.189 L 64.609 41.061 Z M 84.703 49.003 L 84.057 49.287 L 80.434 41.218 L 81.09 40.943 L 84.703 49.003 Z M 96.452 49.003 L 95.806 49.287 L 92.183 41.218 L 92.839 40.943 L 96.452 49.003 Z M 115.428 49.238 L 120.206 49.238 L 120.206 49.923 L 115.428 49.923 L 115.428 49.238 Z M 121.3 49.238 L 126.079 49.238 L 126.079 49.923 L 121.3 49.923 L 121.3 49.238 Z M 143.451 49.003 L 142.804 49.287 L 139.181 41.218 L 139.838 40.943 L 143.451 49.003 Z M 155.201 49.003 L 154.554 49.287 L 150.931 41.218 L 151.588 40.943 L 155.201 49.003 Z M 172.823 49.003 L 172.176 49.287 L 168.553 41.218 L 169.21 40.943 L 172.823 49.003 Z M 184.573 49.003 L 183.926 49.287 L 180.303 41.218 L 180.959 40.943 L 184.573 49.003 Z M 202.195 49.003 L 201.548 49.287 L 197.925 41.218 L 198.582 40.943 L 202.195 49.003 Z M 208.072 49.003 L 207.426 49.287 L 203.802 41.218 L 204.458 40.943 L 208.072 49.003 Z M 211.477 41.061 L 212.142 41.061 L 212.142 49.189 L 211.477 49.189 L 211.477 41.061 Z M 215.297 49.238 L 220.076 49.238 L 220.076 49.923 L 215.297 49.923 L 215.297 49.238 Z M 221.17 49.238 L 225.949 49.238 L 225.949 49.923 L 221.17 49.923 L 221.17 49.238 Z M 229.103 41.061 L 229.769 41.061 L 229.769 49.189 L 229.103 49.189 L 229.103 41.061 Z M 243.32 49.003 L 242.674 49.287 L 239.051 41.218 L 239.707 40.943 L 243.32 49.003 Z M 260.943 49.003 L 260.296 49.287 L 256.673 41.218 L 257.329 40.943 L 260.943 49.003 Z M 272.692 49.003 L 272.046 49.287 L 268.423 41.218 L 269.079 40.943 L 272.692 49.003 Z M 291.667 49.238 L 296.446 49.238 L 296.446 49.923 L 291.667 49.923 L 291.667 49.238 Z M 297.545 49.238 L 302.323 49.238 L 302.323 49.923 L 297.545 49.923 L 297.545 49.238 Z M 319.691 49.003 L 319.044 49.287 L 315.421 41.218 L 316.078 40.943 L 319.691 49.003 Z M 331.44 49.003 L 330.794 49.287 L 327.171 41.218 L 327.827 40.943 L 331.44 49.003 Z M 349.063 49.003 L 348.416 49.287 L 344.793 41.218 L 345.449 40.943 L 349.063 49.003 Z M 354.939 49.003 L 354.294 49.287 L 350.671 41.218 L 351.326 40.943 L 354.939 49.003 Z M 366.689 49.003 L 366.043 49.287 L 362.42 41.218 L 363.076 40.943 L 366.689 49.003 Z M 384.311 49.003 L 383.665 49.287 L 380.042 41.218 L 380.698 40.943 L 384.311 49.003 Z M 434.719 41.061 L 435.385 41.061 L 435.385 49.189 L 434.719 49.189 L 434.719 41.061 Z M 443.06 49.003 L 442.413 49.287 L 438.79 41.218 L 439.446 40.943 L 443.06 49.003 Z M 458.214 41.061 L 458.88 41.061 L 458.88 49.189 L 458.214 49.189 L 458.214 41.061 Z M 469.964 41.061 L 470.629 41.061 L 470.629 49.189 L 469.964 49.189 L 469.964 41.061 Z M 477.653 40.943 L 478.269 41.218 L 474.695 49.287 L 474.078 49.013 L 477.653 40.943 Z M 481.713 41.061 L 482.379 41.061 L 482.379 49.189 L 481.713 49.189 L 481.713 41.061 Z" style="fill: rgb(0, 255, 0); white-space: pre;"/>
    <path style="fill: rgb(0, 255, 0); white-space: pre;"/>
    <path d="M 17.615 50.853 L 18.28 50.853 L 18.28 58.981 L 17.615 58.981 L 17.615 50.853 Z M 30.378 52.116 L 29.839 52.116 L 28.674 50.657 L 29.741 50.657 L 30.378 52.116 Z M 33.896 54.525 L 37.244 54.525 L 37.244 55.25 L 33.896 55.25 L 33.896 54.525 Z M 39.768 54.525 L 43.117 54.525 L 43.117 55.25 L 39.768 55.25 L 39.768 54.525 Z M 45.645 54.525 L 48.994 54.525 L 48.994 55.25 L 45.645 55.25 L 45.645 54.525 Z M 52.81 50.853 L 53.672 50.853 L 53.368 53.82 L 52.81 53.82 L 52.81 50.853 Z M 64.609 50.853 L 65.274 50.853 L 65.274 58.981 L 64.609 58.981 L 64.609 50.853 Z M 90.575 58.795 L 89.929 59.079 L 86.306 51.01 L 86.962 50.736 L 90.575 58.795 Z M 102.325 58.795 L 101.679 59.079 L 98.056 51.01 L 98.712 50.736 L 102.325 58.795 Z M 119.952 58.795 L 119.305 59.079 L 115.682 51.01 L 116.338 50.736 L 119.952 58.795 Z M 131.701 58.795 L 131.055 59.079 L 127.432 51.01 L 128.088 50.736 L 131.701 58.795 Z M 149.324 58.795 L 148.677 59.079 L 145.054 51.01 L 145.71 50.736 L 149.324 58.795 Z M 161.073 58.795 L 160.427 59.079 L 156.804 51.01 L 157.46 50.736 L 161.073 58.795 Z M 178.696 58.795 L 178.049 59.079 L 174.426 51.01 L 175.082 50.736 L 178.696 58.795 Z M 190.445 58.795 L 189.798 59.079 L 186.175 51.01 L 186.832 50.736 L 190.445 58.795 Z M 208.072 58.795 L 207.426 59.079 L 203.802 51.01 L 204.458 50.736 L 208.072 58.795 Z M 237.443 58.795 L 236.797 59.079 L 233.174 51.01 L 233.83 50.736 L 237.443 58.795 Z M 249.193 58.795 L 248.547 59.079 L 244.924 51.01 L 245.58 50.736 L 249.193 58.795 Z M 266.82 58.795 L 266.173 59.079 L 262.55 51.01 L 263.206 50.736 L 266.82 58.795 Z M 278.57 58.795 L 277.923 59.079 L 274.3 51.01 L 274.956 50.736 L 278.57 58.795 Z M 296.192 58.795 L 295.545 59.079 L 291.922 51.01 L 292.578 50.736 L 296.192 58.795 Z M 307.941 58.795 L 307.295 59.079 L 303.672 51.01 L 304.328 50.736 L 307.941 58.795 Z M 325.564 58.795 L 324.917 59.079 L 321.294 51.01 L 321.95 50.736 L 325.564 58.795 Z M 337.313 58.795 L 336.667 59.079 L 333.043 51.01 L 333.7 50.736 L 337.313 58.795 Z M 354.939 58.795 L 354.294 59.079 L 350.671 51.01 L 351.326 50.736 L 354.939 58.795 Z M 360.812 58.795 L 360.166 59.079 L 356.543 51.01 L 357.199 50.736 L 360.812 58.795 Z M 372.562 58.795 L 371.916 59.079 L 368.293 51.01 L 368.948 50.736 L 372.562 58.795 Z M 390.189 58.795 L 389.542 59.079 L 385.919 51.01 L 386.575 50.736 L 390.189 58.795 Z M 434.719 50.853 L 435.385 50.853 L 435.385 58.981 L 434.719 58.981 L 434.719 50.853 Z M 447.483 52.116 L 446.944 52.116 L 445.779 50.657 L 446.846 50.657 L 447.483 52.116 Z M 451 54.525 L 454.349 54.525 L 454.349 55.25 L 451 55.25 L 451 54.525 Z M 456.873 54.525 L 460.221 54.525 L 460.221 55.25 L 456.873 55.25 L 456.873 54.525 Z M 462.749 54.525 L 466.098 54.525 L 466.098 55.25 L 462.749 55.25 L 462.749 54.525 Z M 469.915 50.853 L 470.776 50.853 L 470.473 53.82 L 469.915 53.82 L 469.915 50.853 Z M 481.713 50.853 L 482.379 50.853 L 482.379 58.981 L 481.713 58.981 L 481.713 50.853 Z" style="fill: rgb(0, 255, 0); white-space: pre;"/>
    <path style="fill: rgb(0, 255, 0); white-space: pre;"/>
    <path d="M 17.615 60.645 L 18.28 60.645 L 18.28 68.773 L 17.615 68.773 L 17.615 60.645 Z M 64.609 60.645 L 65.274 60.645 L 65.274 68.773 L 64.609 68.773 L 64.609 60.645 Z M 96.452 68.587 L 95.806 68.871 L 92.183 60.802 L 92.839 60.528 L 96.452 68.587 Z M 108.202 68.587 L 107.556 68.871 L 103.933 60.802 L 104.588 60.528 L 108.202 68.587 Z M 109.551 68.822 L 114.329 68.822 L 114.329 69.507 L 109.551 69.507 L 109.551 68.822 Z M 115.427 68.822 L 120.206 68.822 L 120.206 69.507 L 115.427 69.507 L 115.427 68.822 Z M 125.824 68.587 L 125.178 68.871 L 121.555 60.802 L 122.211 60.528 L 125.824 68.587 Z M 137.574 68.587 L 136.927 68.871 L 133.304 60.802 L 133.961 60.528 L 137.574 68.587 Z M 138.927 68.822 L 143.706 68.822 L 143.706 69.507 L 138.927 69.507 L 138.927 68.822 Z M 144.799 68.822 L 149.578 68.822 L 149.578 69.507 L 144.799 69.507 L 144.799 68.822 Z M 155.201 68.587 L 154.554 68.871 L 150.931 60.802 L 151.587 60.528 L 155.201 68.587 Z M 166.95 68.587 L 166.304 68.871 L 162.681 60.802 L 163.337 60.528 L 166.95 68.587 Z M 168.299 68.822 L 173.078 68.822 L 173.078 69.507 L 168.299 69.507 L 168.299 68.822 Z M 174.171 68.822 L 178.95 68.822 L 178.95 69.507 L 174.171 69.507 L 174.171 68.822 Z M 184.572 68.587 L 183.926 68.871 L 180.303 60.802 L 180.959 60.528 L 184.572 68.587 Z M 196.322 68.587 L 195.676 68.871 L 192.053 60.802 L 192.709 60.528 L 196.322 68.587 Z M 197.671 68.822 L 202.449 68.822 L 202.449 69.507 L 197.671 69.507 L 197.671 68.822 Z M 203.548 68.822 L 208.326 68.822 L 208.326 69.507 L 203.548 69.507 L 203.548 68.822 Z M 213.944 68.587 L 213.298 68.871 L 209.675 60.802 L 210.331 60.528 L 213.944 68.587 Z M 243.32 68.587 L 242.674 68.871 L 239.051 60.802 L 239.707 60.528 L 243.32 68.587 Z M 255.07 68.587 L 254.424 68.871 L 250.801 60.802 L 251.457 60.528 L 255.07 68.587 Z M 256.418 68.822 L 261.197 68.822 L 261.197 69.507 L 256.418 69.507 L 256.418 68.822 Z M 262.295 68.822 L 267.074 68.822 L 267.074 69.507 L 262.295 69.507 L 262.295 68.822 Z M 272.692 68.587 L 272.046 68.871 L 268.423 60.802 L 269.079 60.528 L 272.692 68.587 Z M 284.442 68.587 L 283.795 68.871 L 280.172 60.802 L 280.829 60.528 L 284.442 68.587 Z M 285.795 68.822 L 290.574 68.822 L 290.574 69.507 L 285.795 69.507 L 285.795 68.822 Z M 291.667 68.822 L 296.446 68.822 L 296.446 69.507 L 291.667 69.507 L 291.667 68.822 Z M 302.068 68.587 L 301.422 68.871 L 297.799 60.802 L 298.455 60.528 L 302.068 68.587 Z M 313.818 68.587 L 313.172 68.871 L 309.549 60.802 L 310.205 60.528 L 313.818 68.587 Z M 315.167 68.822 L 319.945 68.822 L 319.945 69.507 L 315.167 69.507 L 315.167 68.822 Z M 321.039 68.822 L 325.818 68.822 L 325.818 69.507 L 321.039 69.507 L 321.039 68.822 Z M 331.44 68.587 L 330.794 68.871 L 327.171 60.802 L 327.827 60.528 L 331.44 68.587 Z M 343.19 68.587 L 342.544 68.871 L 338.921 60.802 L 339.576 60.528 L 343.19 68.587 Z M 344.539 68.822 L 349.317 68.822 L 349.317 69.507 L 344.539 69.507 L 344.539 68.822 Z M 350.416 68.822 L 355.194 68.822 L 355.194 69.507 L 350.416 69.507 L 350.416 68.822 Z M 360.812 68.587 L 360.166 68.871 L 356.543 60.802 L 357.199 60.528 L 360.812 68.587 Z M 366.689 68.587 L 366.043 68.871 L 362.42 60.802 L 363.076 60.528 L 366.689 68.587 Z M 378.439 68.587 L 377.792 68.871 L 374.169 60.802 L 374.825 60.528 L 378.439 68.587 Z M 379.787 68.822 L 384.566 68.822 L 384.566 69.507 L 379.787 69.507 L 379.787 68.822 Z M 385.664 68.822 L 390.443 68.822 L 390.443 69.507 L 385.664 69.507 L 385.664 68.822 Z M 396.061 68.587 L 395.415 68.871 L 391.792 60.802 L 392.448 60.528 L 396.061 68.587 Z M 434.719 60.645 L 435.385 60.645 L 435.385 68.773 L 434.719 68.773 L 434.719 60.645 Z M 481.713 60.645 L 482.379 60.645 L 482.379 68.773 L 481.713 68.773 L 481.713 60.645 Z" style="fill: rgb(0, 255, 0); white-space: pre;"/>
    <path style="fill: rgb(0, 255, 0); white-space: pre;"/>
    <path d="M 17.615 70.437 L 18.28 70.437 L 18.28 78.565 L 17.615 78.565 L 17.615 70.437 Z M 64.609 70.437 L 65.274 70.437 L 65.274 78.565 L 64.609 78.565 L 64.609 70.437 Z M 102.325 78.379 L 101.679 78.663 L 98.056 70.594 L 98.712 70.32 L 102.325 78.379 Z M 105.734 70.437 L 106.4 70.437 L 106.4 78.565 L 105.734 78.565 L 105.734 70.437 Z M 109.551 78.614 L 114.329 78.614 L 114.329 79.299 L 109.551 79.299 L 109.551 78.614 Z M 115.427 78.614 L 120.206 78.614 L 120.206 79.299 L 115.427 79.299 L 115.427 78.614 Z M 123.357 70.437 L 124.023 70.437 L 124.023 78.565 L 123.357 78.565 L 123.357 70.437 Z M 131.701 78.379 L 131.055 78.663 L 127.432 70.594 L 128.088 70.32 L 131.701 78.379 Z M 135.106 70.437 L 135.772 70.437 L 135.772 78.565 L 135.106 78.565 L 135.106 70.437 Z M 138.927 78.614 L 143.706 78.614 L 143.706 79.299 L 138.927 79.299 L 138.927 78.614 Z M 144.799 78.614 L 149.578 78.614 L 149.578 79.299 L 144.799 79.299 L 144.799 78.614 Z M 152.733 70.437 L 153.398 70.437 L 153.398 78.565 L 152.733 78.565 L 152.733 70.437 Z M 161.073 78.379 L 160.426 78.663 L 156.803 70.594 L 157.46 70.32 L 161.073 78.379 Z M 164.483 70.437 L 165.148 70.437 L 165.148 78.565 L 164.483 78.565 L 164.483 70.437 Z M 168.299 78.614 L 173.078 78.614 L 173.078 79.299 L 168.299 79.299 L 168.299 78.614 Z M 174.171 78.614 L 178.95 78.614 L 178.95 79.299 L 174.171 79.299 L 174.171 78.614 Z M 182.105 70.437 L 182.77 70.437 L 182.77 78.565 L 182.105 78.565 L 182.105 70.437 Z M 190.445 78.379 L 189.798 78.663 L 186.175 70.594 L 186.832 70.32 L 190.445 78.379 Z M 193.854 70.437 L 194.52 70.437 L 194.52 78.565 L 193.854 78.565 L 193.854 70.437 Z M 197.671 78.614 L 202.449 78.614 L 202.449 79.299 L 197.671 79.299 L 197.671 78.614 Z M 203.548 78.614 L 208.326 78.614 L 208.326 79.299 L 203.548 79.299 L 203.548 78.614 Z M 211.476 70.437 L 212.142 70.437 L 212.142 78.565 L 211.476 78.565 L 211.476 70.437 Z M 249.193 78.379 L 248.547 78.663 L 244.924 70.594 L 245.579 70.32 L 249.193 78.379 Z M 252.602 70.437 L 253.268 70.437 L 253.268 78.565 L 252.602 78.565 L 252.602 70.437 Z M 256.418 78.614 L 261.197 78.614 L 261.197 79.299 L 256.418 79.299 L 256.418 78.614 Z M 262.295 78.614 L 267.074 78.614 L 267.074 79.299 L 262.295 79.299 L 262.295 78.614 Z M 270.225 70.437 L 270.89 70.437 L 270.89 78.565 L 270.225 78.565 L 270.225 70.437 Z M 278.569 78.379 L 277.923 78.663 L 274.3 70.594 L 274.956 70.32 L 278.569 78.379 Z M 281.974 70.437 L 282.64 70.437 L 282.64 78.565 L 281.974 78.565 L 281.974 70.437 Z M 285.795 78.614 L 290.574 78.614 L 290.574 79.299 L 285.795 79.299 L 285.795 78.614 Z M 291.667 78.614 L 296.446 78.614 L 296.446 79.299 L 291.667 79.299 L 291.667 78.614 Z M 299.601 70.437 L 300.267 70.437 L 300.267 78.565 L 299.601 78.565 L 299.601 70.437 Z M 307.941 78.379 L 307.295 78.663 L 303.671 70.594 L 304.328 70.32 L 307.941 78.379 Z M 311.35 70.437 L 312.016 70.437 L 312.016 78.565 L 311.35 78.565 L 311.35 70.437 Z M 315.167 78.614 L 319.945 78.614 L 319.945 79.299 L 315.167 79.299 L 315.167 78.614 Z M 321.039 78.614 L 325.818 78.614 L 325.818 79.299 L 321.039 79.299 L 321.039 78.614 Z M 328.972 70.437 L 329.639 70.437 L 329.639 78.565 L 328.972 78.565 L 328.972 70.437 Z M 337.313 78.379 L 336.667 78.663 L 333.043 70.594 L 333.7 70.32 L 337.313 78.379 Z M 340.722 70.437 L 341.388 70.437 L 341.388 78.565 L 340.722 78.565 L 340.722 70.437 Z M 344.539 78.614 L 349.317 78.614 L 349.317 79.299 L 344.539 79.299 L 344.539 78.614 Z M 350.416 78.614 L 355.194 78.614 L 355.194 79.299 L 350.416 79.299 L 350.416 78.614 Z M 358.344 70.437 L 359.011 70.437 L 359.011 78.565 L 358.344 78.565 L 358.344 70.437 Z M 372.561 78.379 L 371.916 78.663 L 368.293 70.594 L 368.948 70.32 L 372.561 78.379 Z M 375.971 70.437 L 376.637 70.437 L 376.637 78.565 L 375.971 78.565 L 375.971 70.437 Z M 379.787 78.614 L 384.566 78.614 L 384.566 79.299 L 379.787 79.299 L 379.787 78.614 Z M 385.664 78.614 L 390.443 78.614 L 390.443 79.299 L 385.664 79.299 L 385.664 78.614 Z M 393.593 70.437 L 394.259 70.437 L 394.259 78.565 L 393.593 78.565 L 393.593 70.437 Z M 434.719 70.437 L 435.385 70.437 L 435.385 78.565 L 434.719 78.565 L 434.719 70.437 Z M 481.713 70.437 L 482.379 70.437 L 482.379 78.565 L 481.713 78.565 L 481.713 70.437 Z" style="fill: rgb(0, 255, 0); white-space: pre;"/>
    <path style="fill: rgb(0, 255, 0); white-space: pre;"/>
    <path d="M 17.615 80.23 L 18.28 80.23 L 18.28 88.357 L 17.615 88.357 L 17.615 80.23 Z M 64.609 80.23 L 65.274 80.23 L 65.274 88.357 L 64.609 88.357 L 64.609 80.23 Z M 115.427 88.406 L 120.206 88.406 L 120.206 89.091 L 115.427 89.091 L 115.427 88.406 Z M 121.3 88.406 L 126.079 88.406 L 126.079 89.091 L 121.3 89.091 L 121.3 88.406 Z M 127.177 88.406 L 131.956 88.406 L 131.956 89.091 L 127.177 89.091 L 127.177 88.406 Z M 133.05 88.406 L 137.828 88.406 L 137.828 89.091 L 133.05 89.091 L 133.05 88.406 Z M 138.927 88.406 L 143.706 88.406 L 143.706 89.091 L 138.927 89.091 L 138.927 88.406 Z M 144.799 88.406 L 149.578 88.406 L 149.578 89.091 L 144.799 89.091 L 144.799 88.406 Z M 150.677 88.406 L 155.455 88.406 L 155.455 89.091 L 150.677 89.091 L 150.677 88.406 Z M 156.549 88.406 L 161.328 88.406 L 161.328 89.091 L 156.549 89.091 L 156.549 88.406 Z M 174.171 88.406 L 178.95 88.406 L 178.95 89.091 L 174.171 89.091 L 174.171 88.406 Z M 180.049 88.406 L 184.827 88.406 L 184.827 89.091 L 180.049 89.091 L 180.049 88.406 Z M 185.921 88.406 L 190.7 88.406 L 190.7 89.091 L 185.921 89.091 L 185.921 88.406 Z M 191.798 88.406 L 196.577 88.406 L 196.577 89.091 L 191.798 89.091 L 191.798 88.406 Z M 197.671 88.406 L 202.449 88.406 L 202.449 89.091 L 197.671 89.091 L 197.671 88.406 Z M 203.548 88.406 L 208.326 88.406 L 208.326 89.091 L 203.548 89.091 L 203.548 88.406 Z M 209.42 88.406 L 214.199 88.406 L 214.199 89.091 L 209.42 89.091 L 209.42 88.406 Z M 215.297 88.406 L 220.076 88.406 L 220.076 89.091 L 215.297 89.091 L 215.297 88.406 Z M 232.919 88.406 L 237.698 88.406 L 237.698 89.091 L 232.919 89.091 L 232.919 88.406 Z M 238.796 88.406 L 243.575 88.406 L 243.575 89.091 L 238.796 89.091 L 238.796 88.406 Z M 244.669 88.406 L 249.447 88.406 L 249.447 89.091 L 244.669 89.091 L 244.669 88.406 Z M 250.546 88.406 L 255.324 88.406 L 255.324 89.091 L 250.546 89.091 L 250.546 88.406 Z M 256.418 88.406 L 261.197 88.406 L 261.197 89.091 L 256.418 89.091 L 256.418 88.406 Z M 262.295 88.406 L 267.074 88.406 L 267.074 89.091 L 262.295 89.091 L 262.295 88.406 Z M 268.168 88.406 L 272.947 88.406 L 272.947 89.091 L 268.168 89.091 L 268.168 88.406 Z M 274.045 88.406 L 278.824 88.406 L 278.824 89.091 L 274.045 89.091 L 274.045 88.406 Z M 291.667 88.406 L 296.446 88.406 L 296.446 89.091 L 291.667 89.091 L 291.667 88.406 Z M 297.545 88.406 L 302.323 88.406 L 302.323 89.091 L 297.545 89.091 L 297.545 88.406 Z M 303.417 88.406 L 308.196 88.406 L 308.196 89.091 L 303.417 89.091 L 303.417 88.406 Z M 309.294 88.406 L 314.073 88.406 L 314.073 89.091 L 309.294 89.091 L 309.294 88.406 Z M 315.167 88.406 L 319.945 88.406 L 319.945 89.091 L 315.167 89.091 L 315.167 88.406 Z M 321.039 88.406 L 325.818 88.406 L 325.818 89.091 L 321.039 89.091 L 321.039 88.406 Z M 326.916 88.406 L 331.695 88.406 L 331.695 89.091 L 326.916 89.091 L 326.916 88.406 Z M 332.789 88.406 L 337.568 88.406 L 337.568 89.091 L 332.789 89.091 L 332.789 88.406 Z M 350.416 88.406 L 355.194 88.406 L 355.194 89.091 L 350.416 89.091 L 350.416 88.406 Z M 356.288 88.406 L 361.067 88.406 L 361.067 89.091 L 356.288 89.091 L 356.288 88.406 Z M 362.165 88.406 L 366.943 88.406 L 366.943 89.091 L 362.165 89.091 L 362.165 88.406 Z M 379.787 88.406 L 384.566 88.406 L 384.566 89.091 L 379.787 89.091 L 379.787 88.406 Z M 385.664 88.406 L 390.443 88.406 L 390.443 89.091 L 385.664 89.091 L 385.664 88.406 Z M 391.537 88.406 L 396.315 88.406 L 396.315 89.091 L 391.537 89.091 L 391.537 88.406 Z M 434.719 80.23 L 435.385 80.23 L 435.385 88.357 L 434.719 88.357 L 434.719 80.23 Z M 481.713 80.23 L 482.379 80.23 L 482.379 88.357 L 481.713 88.357 L 481.713 80.23 Z" style="fill: rgb(0, 255, 0); white-space: pre;"/>
    <path style="fill: rgb(0, 255, 0); white-space: pre;"/>
    <path d="M 17.615 90.022 L 18.28 90.022 L 18.28 98.149 L 17.615 98.149 L 17.615 90.022 Z M 64.609 90.022 L 65.274 90.022 L 65.274 98.149 L 64.609 98.149 L 64.609 90.022 Z M 111.607 90.022 L 112.273 90.022 L 112.273 98.149 L 111.607 98.149 L 111.607 90.022 Z M 119.952 97.963 L 119.305 98.247 L 115.682 90.179 L 116.338 89.904 L 119.952 97.963 Z M 138.927 98.198 L 143.706 98.198 L 143.706 98.884 L 138.927 98.884 L 138.927 98.198 Z M 144.799 98.198 L 149.578 98.198 L 149.578 98.884 L 144.799 98.884 L 144.799 98.198 Z M 166.95 97.963 L 166.304 98.247 L 162.681 90.179 L 163.337 89.904 L 166.95 97.963 Z M 170.355 90.022 L 171.021 90.022 L 171.021 98.149 L 170.355 98.149 L 170.355 90.022 Z M 178.695 97.963 L 178.049 98.247 L 174.426 90.179 L 175.082 89.904 L 178.695 97.963 Z M 197.671 98.198 L 202.449 98.198 L 202.449 98.884 L 197.671 98.884 L 197.671 98.198 Z M 203.548 98.198 L 208.326 98.198 L 208.326 98.884 L 203.548 98.884 L 203.548 98.198 Z M 225.694 97.963 L 225.048 98.247 L 221.425 90.179 L 222.08 89.904 L 225.694 97.963 Z M 229.103 90.022 L 229.769 90.022 L 229.769 98.149 L 229.103 98.149 L 229.103 90.022 Z M 237.443 97.963 L 236.797 98.247 L 233.174 90.179 L 233.83 89.904 L 237.443 97.963 Z M 256.418 98.198 L 261.197 98.198 L 261.197 98.884 L 256.418 98.884 L 256.418 98.198 Z M 262.295 98.198 L 267.074 98.198 L 267.074 98.884 L 262.295 98.884 L 262.295 98.198 Z M 268.168 98.198 L 272.947 98.198 L 272.947 98.884 L 268.168 98.884 L 268.168 98.198 Z M 284.442 97.963 L 283.795 98.247 L 280.172 90.179 L 280.829 89.904 L 284.442 97.963 Z M 287.851 90.022 L 288.517 90.022 L 288.517 98.149 L 287.851 98.149 L 287.851 90.022 Z M 296.192 97.963 L 295.545 98.247 L 291.922 90.179 L 292.578 89.904 L 296.192 97.963 Z M 315.167 98.198 L 319.945 98.198 L 319.945 98.884 L 315.167 98.884 L 315.167 98.198 Z M 321.039 98.198 L 325.818 98.198 L 325.818 98.884 L 321.039 98.884 L 321.039 98.198 Z M 343.19 97.963 L 342.544 98.247 L 338.921 90.179 L 339.576 89.904 L 343.19 97.963 Z M 346.595 90.022 L 347.261 90.022 L 347.261 98.149 L 346.595 98.149 L 346.595 90.022 Z M 354.939 97.963 L 354.293 98.247 L 350.67 90.179 L 351.326 89.904 L 354.939 97.963 Z M 372.561 97.963 L 371.916 98.247 L 368.293 90.179 L 368.948 89.904 L 372.561 97.963 Z M 375.971 90.022 L 376.637 90.022 L 376.637 98.149 L 375.971 98.149 L 375.971 90.022 Z M 384.311 97.963 L 383.665 98.247 L 380.042 90.179 L 380.698 89.904 L 384.311 97.963 Z M 401.938 97.963 L 401.291 98.247 L 397.668 90.179 L 398.325 89.904 L 401.938 97.963 Z M 434.719 90.022 L 435.385 90.022 L 435.385 98.149 L 434.719 98.149 L 434.719 90.022 Z M 481.713 90.022 L 482.379 90.022 L 482.379 98.149 L 481.713 98.149 L 481.713 90.022 Z" style="fill: rgb(0, 255, 0); white-space: pre;"/>
    <path style="fill: rgb(0, 255, 0); white-space: pre;"/>
    <path d="M 17.615 99.814 L 18.281 99.814 L 18.281 107.941 L 17.615 107.941 L 17.615 99.814 Z M 64.609 99.814 L 65.274 99.814 L 65.274 107.941 L 64.609 107.941 L 64.609 99.814 Z M 114.075 107.755 L 113.429 108.039 L 109.806 99.971 L 110.461 99.696 L 114.075 107.755 Z M 125.824 107.755 L 125.178 108.039 L 121.555 99.971 L 122.211 99.696 L 125.824 107.755 Z M 143.451 107.755 L 142.805 108.039 L 139.182 99.971 L 139.838 99.696 L 143.451 107.755 Z M 146.856 99.814 L 147.522 99.814 L 147.522 107.941 L 146.856 107.941 L 146.856 99.814 Z M 155.201 107.755 L 154.554 108.039 L 150.931 99.971 L 151.588 99.696 L 155.201 107.755 Z M 172.823 107.755 L 172.176 108.039 L 168.553 99.971 L 169.21 99.696 L 172.823 107.755 Z M 184.573 107.755 L 183.926 108.039 L 180.303 99.971 L 180.96 99.696 L 184.573 107.755 Z M 202.195 107.755 L 201.548 108.039 L 197.925 99.971 L 198.582 99.696 L 202.195 107.755 Z M 205.604 99.814 L 206.27 99.814 L 206.27 107.941 L 205.604 107.941 L 205.604 99.814 Z M 213.944 107.755 L 213.298 108.039 L 209.675 99.971 L 210.331 99.696 L 213.944 107.755 Z M 225.038 99.696 L 225.655 99.971 L 222.081 108.039 L 221.464 107.765 L 225.038 99.696 Z M 231.571 107.755 L 230.925 108.039 L 227.302 99.971 L 227.958 99.696 L 231.571 107.755 Z M 243.32 107.755 L 242.675 108.039 L 239.052 99.971 L 239.707 99.696 L 243.32 107.755 Z M 260.943 107.755 L 260.297 108.039 L 256.674 99.971 L 257.329 99.696 L 260.943 107.755 Z M 262.296 107.99 L 267.074 107.99 L 267.074 108.676 L 262.296 108.676 L 262.296 107.99 Z M 270.225 99.814 L 270.891 99.814 L 270.891 107.941 L 270.225 107.941 L 270.225 99.814 Z M 278.57 107.755 L 277.923 108.039 L 274.3 99.971 L 274.956 99.696 L 278.57 107.755 Z M 290.319 107.755 L 289.673 108.039 L 286.05 99.971 L 286.706 99.696 L 290.319 107.755 Z M 302.069 107.755 L 301.422 108.039 L 297.799 99.971 L 298.456 99.696 L 302.069 107.755 Z M 319.691 107.755 L 319.044 108.039 L 315.421 99.971 L 316.078 99.696 L 319.691 107.755 Z M 323.096 99.814 L 323.762 99.814 L 323.762 107.941 L 323.096 107.941 L 323.096 99.814 Z M 331.441 107.755 L 330.794 108.039 L 327.171 99.971 L 327.827 99.696 L 331.441 107.755 Z M 349.063 107.755 L 348.416 108.039 L 344.793 99.971 L 345.45 99.696 L 349.063 107.755 Z M 360.812 107.755 L 360.166 108.039 L 356.543 99.971 L 357.199 99.696 L 360.812 107.755 Z M 378.439 107.755 L 377.793 108.039 L 374.17 99.971 L 374.825 99.696 L 378.439 107.755 Z M 384.311 107.755 L 383.665 108.039 L 380.042 99.971 L 380.698 99.696 L 384.311 107.755 Z M 390.189 107.755 L 389.542 108.039 L 385.919 99.971 L 386.575 99.696 L 390.189 107.755 Z M 407.811 107.755 L 407.165 108.039 L 403.542 99.971 L 404.197 99.696 L 407.811 107.755 Z M 434.72 99.814 L 435.385 99.814 L 435.385 107.941 L 434.72 107.941 L 434.72 99.814 Z M 481.713 99.814 L 482.379 99.814 L 482.379 107.941 L 481.713 107.941 L 481.713 99.814 Z" style="fill: rgb(0, 255, 0); white-space: pre;"/>
    <path style="fill: rgb(0, 255, 0); white-space: pre;"/>
    <path d="M 17.615 109.606 L 18.281 109.606 L 18.281 117.733 L 17.615 117.733 L 17.615 109.606 Z M 64.609 109.606 L 65.274 109.606 L 65.274 117.733 L 64.609 117.733 L 64.609 109.606 Z M 119.952 117.547 L 119.306 117.831 L 115.683 109.763 L 116.338 109.488 L 119.952 117.547 Z M 131.701 117.547 L 131.055 117.831 L 127.432 109.763 L 128.088 109.488 L 131.701 117.547 Z M 150.677 117.782 L 155.455 117.782 L 155.455 118.468 L 150.677 118.468 L 150.677 117.782 Z M 156.549 117.782 L 161.328 117.782 L 161.328 118.468 L 156.549 118.468 L 156.549 117.782 Z M 178.696 117.547 L 178.049 117.831 L 174.426 109.763 L 175.082 109.488 L 178.696 117.547 Z M 190.445 117.547 L 189.799 117.831 L 186.176 109.763 L 186.832 109.488 L 190.445 117.547 Z M 209.421 117.782 L 214.199 117.782 L 214.199 118.468 L 209.421 118.468 L 209.421 117.782 Z M 215.298 117.782 L 220.076 117.782 L 220.076 118.468 L 215.298 118.468 L 215.298 117.782 Z M 237.443 117.547 L 236.798 117.831 L 233.174 109.763 L 233.83 109.488 L 237.443 117.547 Z M 249.193 117.547 L 248.547 117.831 L 244.924 109.763 L 245.58 109.488 L 249.193 117.547 Z M 266.82 117.547 L 266.173 117.831 L 262.55 109.763 L 263.206 109.488 L 266.82 117.547 Z M 278.57 117.547 L 277.923 117.831 L 274.3 109.763 L 274.956 109.488 L 278.57 117.547 Z M 284.442 117.547 L 283.796 117.831 L 280.173 109.763 L 280.829 109.488 L 284.442 117.547 Z M 296.192 117.547 L 295.545 117.831 L 291.922 109.763 L 292.578 109.488 L 296.192 117.547 Z M 307.942 117.547 L 307.295 117.831 L 303.672 109.763 L 304.328 109.488 L 307.942 117.547 Z M 325.564 117.547 L 324.917 117.831 L 321.294 109.763 L 321.95 109.488 L 325.564 117.547 Z M 331.441 117.547 L 330.794 117.831 L 327.171 109.763 L 327.827 109.488 L 331.441 117.547 Z M 337.313 117.547 L 336.667 117.831 L 333.043 109.763 L 333.7 109.488 L 337.313 117.547 Z M 354.94 117.547 L 354.294 117.831 L 350.671 109.763 L 351.326 109.488 L 354.94 117.547 Z M 366.689 117.547 L 366.043 117.831 L 362.42 109.763 L 363.076 109.488 L 366.689 117.547 Z M 384.311 117.547 L 383.665 117.831 L 380.042 109.763 L 380.698 109.488 L 384.311 117.547 Z M 390.189 117.547 L 389.542 117.831 L 385.919 109.763 L 386.575 109.488 L 390.189 117.547 Z M 396.061 117.547 L 395.415 117.831 L 391.792 109.763 L 392.448 109.488 L 396.061 117.547 Z M 413.688 117.547 L 413.041 117.831 L 409.418 109.763 L 410.075 109.488 L 413.688 117.547 Z M 434.72 109.606 L 435.385 109.606 L 435.385 117.733 L 434.72 117.733 L 434.72 109.606 Z M 481.713 109.606 L 482.379 109.606 L 482.379 117.733 L 481.713 117.733 L 481.713 109.606 Z" style="fill: rgb(0, 255, 0); white-space: pre;"/>
    <path style="fill: rgb(0, 255, 0); white-space: pre;"/>
    <path d="M 17.615 119.398 L 18.281 119.398 L 18.281 127.526 L 17.615 127.526 L 17.615 119.398 Z M 64.609 119.398 L 65.274 119.398 L 65.274 127.526 L 64.609 127.526 L 64.609 119.398 Z M 125.824 127.34 L 125.178 127.623 L 121.555 119.555 L 122.211 119.28 L 125.824 127.34 Z M 137.574 127.34 L 136.928 127.623 L 133.305 119.555 L 133.961 119.28 L 137.574 127.34 Z M 155.201 127.34 L 154.554 127.623 L 150.931 119.555 L 151.588 119.28 L 155.201 127.34 Z M 166.951 127.34 L 166.304 127.623 L 162.681 119.555 L 163.337 119.28 L 166.951 127.34 Z M 184.573 127.34 L 183.926 127.623 L 180.303 119.555 L 180.96 119.28 L 184.573 127.34 Z M 196.322 127.34 L 195.676 127.623 L 192.053 119.555 L 192.709 119.28 L 196.322 127.34 Z M 213.944 127.34 L 213.298 127.623 L 209.675 119.555 L 210.331 119.28 L 213.944 127.34 Z M 217.354 119.398 L 218.02 119.398 L 218.02 127.526 L 217.354 127.526 L 217.354 119.398 Z M 225.694 127.34 L 225.048 127.623 L 221.425 119.555 L 222.081 119.28 L 225.694 127.34 Z M 243.32 127.34 L 242.675 127.623 L 239.052 119.555 L 239.707 119.28 L 243.32 127.34 Z M 255.07 127.34 L 254.424 127.623 L 250.801 119.555 L 251.457 119.28 L 255.07 127.34 Z M 272.692 127.34 L 272.046 127.623 L 268.423 119.555 L 269.079 119.28 L 272.692 127.34 Z M 274.045 127.574 L 278.824 127.574 L 278.824 128.26 L 274.045 128.26 L 274.045 127.574 Z M 284.442 127.34 L 283.796 127.623 L 280.173 119.555 L 280.829 119.28 L 284.442 127.34 Z M 290.319 127.34 L 289.673 127.623 L 286.05 119.555 L 286.706 119.28 L 290.319 127.34 Z M 302.069 127.34 L 301.422 127.623 L 297.799 119.555 L 298.456 119.28 L 302.069 127.34 Z M 313.818 127.34 L 313.172 127.623 L 309.549 119.555 L 310.205 119.28 L 313.818 127.34 Z M 331.441 127.34 L 330.794 127.623 L 327.171 119.555 L 327.827 119.28 L 331.441 127.34 Z M 337.313 127.34 L 336.667 127.623 L 333.043 119.555 L 333.7 119.28 L 337.313 127.34 Z M 343.19 127.34 L 342.544 127.623 L 338.921 119.555 L 339.577 119.28 L 343.19 127.34 Z M 360.812 127.34 L 360.166 127.623 L 356.543 119.555 L 357.199 119.28 L 360.812 127.34 Z M 372.562 127.34 L 371.916 127.623 L 368.293 119.555 L 368.949 119.28 L 372.562 127.34 Z M 390.189 127.34 L 389.542 127.623 L 385.919 119.555 L 386.575 119.28 L 390.189 127.34 Z M 396.061 127.34 L 395.415 127.623 L 391.792 119.555 L 392.448 119.28 L 396.061 127.34 Z M 401.938 127.34 L 401.292 127.623 L 397.669 119.555 L 398.325 119.28 L 401.938 127.34 Z M 419.561 127.34 L 418.914 127.623 L 415.291 119.555 L 415.947 119.28 L 419.561 127.34 Z M 434.72 119.398 L 435.385 119.398 L 435.385 127.526 L 434.72 127.526 L 434.72 119.398 Z M 481.713 119.398 L 482.379 119.398 L 482.379 127.526 L 481.713 127.526 L 481.713 119.398 Z" style="fill: rgb(0, 255, 0); white-space: pre;"/>
    <path style="fill: rgb(0, 255, 0); white-space: pre;"/>
    <path d="M 17.615 129.19 L 18.281 129.19 L 18.281 137.318 L 17.615 137.318 L 17.615 129.19 Z M 64.609 129.19 L 65.274 129.19 L 65.274 137.318 L 64.609 137.318 L 64.609 129.19 Z M 131.701 137.132 L 131.055 137.416 L 127.432 129.347 L 128.088 129.072 L 131.701 137.132 Z M 143.451 137.132 L 142.805 137.416 L 139.182 129.347 L 139.838 129.072 L 143.451 137.132 Z M 144.8 137.367 L 149.578 137.367 L 149.578 138.052 L 144.8 138.052 L 144.8 137.367 Z M 150.677 137.367 L 155.455 137.367 L 155.455 138.052 L 150.677 138.052 L 150.677 137.367 Z M 161.073 137.132 L 160.427 137.416 L 156.804 129.347 L 157.46 129.072 L 161.073 137.132 Z M 172.823 137.132 L 172.176 137.416 L 168.553 129.347 L 169.21 129.072 L 172.823 137.132 Z M 174.171 137.367 L 178.95 137.367 L 178.95 138.052 L 174.171 138.052 L 174.171 137.367 Z M 180.049 137.367 L 184.827 137.367 L 184.827 138.052 L 180.049 138.052 L 180.049 137.367 Z M 190.445 137.132 L 189.799 137.416 L 186.176 129.347 L 186.832 129.072 L 190.445 137.132 Z M 202.195 137.132 L 201.548 137.416 L 197.925 129.347 L 198.582 129.072 L 202.195 137.132 Z M 203.548 137.367 L 208.327 137.367 L 208.327 138.052 L 203.548 138.052 L 203.548 137.367 Z M 209.421 137.367 L 214.199 137.367 L 214.199 138.052 L 209.421 138.052 L 209.421 137.367 Z M 215.298 137.367 L 220.076 137.367 L 220.076 138.052 L 215.298 138.052 L 215.298 137.367 Z M 221.17 137.367 L 225.949 137.367 L 225.949 138.052 L 221.17 138.052 L 221.17 137.367 Z M 227.047 137.367 L 231.826 137.367 L 231.826 138.052 L 227.047 138.052 L 227.047 137.367 Z M 232.92 137.367 L 237.698 137.367 L 237.698 138.052 L 232.92 138.052 L 232.92 137.367 Z M 238.797 137.367 L 243.575 137.367 L 243.575 138.052 L 238.797 138.052 L 238.797 137.367 Z M 249.193 137.132 L 248.547 137.416 L 244.924 129.347 L 245.58 129.072 L 249.193 137.132 Z M 260.943 137.132 L 260.297 137.416 L 256.674 129.347 L 257.329 129.072 L 260.943 137.132 Z M 262.296 137.367 L 267.074 137.367 L 267.074 138.052 L 262.296 138.052 L 262.296 137.367 Z M 268.168 137.367 L 272.947 137.367 L 272.947 138.052 L 268.168 138.052 L 268.168 137.367 Z M 274.045 137.367 L 278.824 137.367 L 278.824 138.052 L 274.045 138.052 L 274.045 137.367 Z M 279.918 137.367 L 284.696 137.367 L 284.696 138.052 L 279.918 138.052 L 279.918 137.367 Z M 285.795 137.367 L 290.574 137.367 L 290.574 138.052 L 285.795 138.052 L 285.795 137.367 Z M 291.667 137.367 L 296.446 137.367 L 296.446 138.052 L 291.667 138.052 L 291.667 137.367 Z M 297.545 137.367 L 302.323 137.367 L 302.323 138.052 L 297.545 138.052 L 297.545 137.367 Z M 307.942 137.132 L 307.295 137.416 L 303.672 129.347 L 304.328 129.072 L 307.942 137.132 Z M 319.691 137.132 L 319.044 137.416 L 315.421 129.347 L 316.078 129.072 L 319.691 137.132 Z M 321.039 137.367 L 325.818 137.367 L 325.818 138.052 L 321.039 138.052 L 321.039 137.367 Z M 326.917 137.367 L 331.695 137.367 L 331.695 138.052 L 326.917 138.052 L 326.917 137.367 Z M 332.789 137.367 L 337.568 137.367 L 337.568 138.052 L 332.789 138.052 L 332.789 137.367 Z M 338.666 137.367 L 343.445 137.367 L 343.445 138.052 L 338.666 138.052 L 338.666 137.367 Z M 344.539 137.367 L 349.318 137.367 L 349.318 138.052 L 344.539 138.052 L 344.539 137.367 Z M 350.416 137.367 L 355.194 137.367 L 355.194 138.052 L 350.416 138.052 L 350.416 137.367 Z M 356.289 137.367 L 361.067 137.367 L 361.067 138.052 L 356.289 138.052 L 356.289 137.367 Z M 366.689 137.132 L 366.043 137.416 L 362.42 129.347 L 363.076 129.072 L 366.689 137.132 Z M 378.439 137.132 L 377.793 137.416 L 374.17 129.347 L 374.825 129.072 L 378.439 137.132 Z M 379.788 137.367 L 384.566 137.367 L 384.566 138.052 L 379.788 138.052 L 379.788 137.367 Z M 385.665 137.367 L 390.443 137.367 L 390.443 138.052 L 385.665 138.052 L 385.665 137.367 Z M 391.537 137.367 L 396.316 137.367 L 396.316 138.052 L 391.537 138.052 L 391.537 137.367 Z M 397.414 137.367 L 402.193 137.367 L 402.193 138.052 L 397.414 138.052 L 397.414 137.367 Z M 403.287 137.367 L 408.065 137.367 L 408.065 138.052 L 403.287 138.052 L 403.287 137.367 Z M 409.164 137.367 L 413.942 137.367 L 413.942 138.052 L 409.164 138.052 L 409.164 137.367 Z M 415.036 137.367 L 419.815 137.367 L 419.815 138.052 L 415.036 138.052 L 415.036 137.367 Z M 425.438 137.132 L 424.791 137.416 L 421.168 129.347 L 421.824 129.072 L 425.438 137.132 Z M 434.72 129.19 L 435.385 129.19 L 435.385 137.318 L 434.72 137.318 L 434.72 129.19 Z M 481.713 129.19 L 482.379 129.19 L 482.379 137.318 L 481.713 137.318 L 481.713 129.19 Z" style="fill: rgb(0, 255, 0); white-space: pre;"/>
    <path style="fill: rgb(0, 255, 0); white-space: pre;"/>
    <path d="M 17.615 138.982 L 18.281 138.982 L 18.281 147.11 L 17.615 147.11 L 17.615 138.982 Z M 64.609 138.982 L 65.274 138.982 L 65.274 147.11 L 64.609 147.11 L 64.609 138.982 Z M 137.574 146.924 L 136.928 147.208 L 133.305 139.139 L 133.961 138.865 L 137.574 146.924 Z M 140.984 138.982 L 141.649 138.982 L 141.649 147.11 L 140.984 147.11 L 140.984 138.982 Z M 144.8 147.159 L 149.578 147.159 L 149.578 147.844 L 144.8 147.844 L 144.8 147.159 Z M 150.677 147.159 L 155.455 147.159 L 155.455 147.844 L 150.677 147.844 L 150.677 147.159 Z M 158.606 138.982 L 159.272 138.982 L 159.272 147.11 L 158.606 147.11 L 158.606 138.982 Z M 166.951 146.924 L 166.304 147.208 L 162.681 139.139 L 163.337 138.865 L 166.951 146.924 Z M 170.356 138.982 L 171.021 138.982 L 171.021 147.11 L 170.356 147.11 L 170.356 138.982 Z M 174.171 147.159 L 178.95 147.159 L 178.95 147.844 L 174.171 147.844 L 174.171 147.159 Z M 180.049 147.159 L 184.827 147.159 L 184.827 147.844 L 180.049 147.844 L 180.049 147.159 Z M 187.978 138.982 L 188.643 138.982 L 188.643 147.11 L 187.978 147.11 L 187.978 138.982 Z M 196.322 146.924 L 195.676 147.208 L 192.053 139.139 L 192.709 138.865 L 196.322 146.924 Z M 199.727 138.982 L 200.393 138.982 L 200.393 147.11 L 199.727 147.11 L 199.727 138.982 Z M 203.548 147.159 L 208.327 147.159 L 208.327 147.844 L 203.548 147.844 L 203.548 147.159 Z M 209.421 147.159 L 214.199 147.159 L 214.199 147.844 L 209.421 147.844 L 209.421 147.159 Z M 215.298 147.159 L 220.076 147.159 L 220.076 147.844 L 215.298 147.844 L 215.298 147.159 Z M 221.17 147.159 L 225.949 147.159 L 225.949 147.844 L 221.17 147.844 L 221.17 147.159 Z M 227.047 147.159 L 231.826 147.159 L 231.826 147.844 L 227.047 147.844 L 227.047 147.159 Z M 232.92 147.159 L 237.698 147.159 L 237.698 147.844 L 232.92 147.844 L 232.92 147.159 Z M 238.797 147.159 L 243.575 147.159 L 243.575 147.844 L 238.797 147.844 L 238.797 147.159 Z M 246.725 138.982 L 247.392 138.982 L 247.392 147.11 L 246.725 147.11 L 246.725 138.982 Z M 255.07 146.924 L 254.424 147.208 L 250.801 139.139 L 251.457 138.865 L 255.07 146.924 Z M 258.475 138.982 L 259.141 138.982 L 259.141 147.11 L 258.475 147.11 L 258.475 138.982 Z M 262.296 147.159 L 267.074 147.159 L 267.074 147.844 L 262.296 147.844 L 262.296 147.159 Z M 268.168 147.159 L 272.947 147.159 L 272.947 147.844 L 268.168 147.844 L 268.168 147.159 Z M 274.045 147.159 L 278.824 147.159 L 278.824 147.844 L 274.045 147.844 L 274.045 147.159 Z M 279.918 147.159 L 284.696 147.159 L 284.696 147.844 L 279.918 147.844 L 279.918 147.159 Z M 285.795 147.159 L 290.574 147.159 L 290.574 147.844 L 285.795 147.844 L 285.795 147.159 Z M 291.667 147.159 L 296.446 147.159 L 296.446 147.844 L 291.667 147.844 L 291.667 147.159 Z M 297.545 147.159 L 302.323 147.159 L 302.323 147.844 L 297.545 147.844 L 297.545 147.159 Z M 305.474 138.982 L 306.139 138.982 L 306.139 147.11 L 305.474 147.11 L 305.474 138.982 Z M 313.818 146.924 L 313.172 147.208 L 309.549 139.139 L 310.205 138.865 L 313.818 146.924 Z M 317.223 138.982 L 317.889 138.982 L 317.889 147.11 L 317.223 147.11 L 317.223 138.982 Z M 321.039 147.159 L 325.818 147.159 L 325.818 147.844 L 321.039 147.844 L 321.039 147.159 Z M 326.917 147.159 L 331.695 147.159 L 331.695 147.844 L 326.917 147.844 L 326.917 147.159 Z M 332.789 147.159 L 337.568 147.159 L 337.568 147.844 L 332.789 147.844 L 332.789 147.159 Z M 338.666 147.159 L 343.445 147.159 L 343.445 147.844 L 338.666 147.844 L 338.666 147.159 Z M 344.539 147.159 L 349.318 147.159 L 349.318 147.844 L 344.539 147.844 L 344.539 147.159 Z M 350.416 147.159 L 355.194 147.159 L 355.194 147.844 L 350.416 147.844 L 350.416 147.159 Z M 356.289 147.159 L 361.067 147.159 L 361.067 147.844 L 356.289 147.844 L 356.289 147.159 Z M 364.221 138.982 L 364.888 138.982 L 364.888 147.11 L 364.221 147.11 L 364.221 138.982 Z M 372.562 146.924 L 371.916 147.208 L 368.293 139.139 L 368.949 138.865 L 372.562 146.924 Z M 375.971 138.982 L 376.637 138.982 L 376.637 147.11 L 375.971 147.11 L 375.971 138.982 Z M 379.788 147.159 L 384.566 147.159 L 384.566 147.844 L 379.788 147.844 L 379.788 147.159 Z M 385.665 147.159 L 390.443 147.159 L 390.443 147.844 L 385.665 147.844 L 385.665 147.159 Z M 391.537 147.159 L 396.316 147.159 L 396.316 147.844 L 391.537 147.844 L 391.537 147.159 Z M 397.414 147.159 L 402.193 147.159 L 402.193 147.844 L 397.414 147.844 L 397.414 147.159 Z M 403.287 147.159 L 408.065 147.159 L 408.065 147.844 L 403.287 147.844 L 403.287 147.159 Z M 409.164 147.159 L 413.942 147.159 L 413.942 147.844 L 409.164 147.844 L 409.164 147.159 Z M 415.036 147.159 L 419.815 147.159 L 419.815 147.844 L 415.036 147.844 L 415.036 147.159 Z M 422.97 138.982 L 423.635 138.982 L 423.635 147.11 L 422.97 147.11 L 422.97 138.982 Z M 434.72 138.982 L 435.385 138.982 L 435.385 147.11 L 434.72 147.11 L 434.72 138.982 Z M 481.713 138.982 L 482.379 138.982 L 482.379 147.11 L 481.713 147.11 L 481.713 138.982 Z" style="fill: rgb(0, 255, 0); white-space: pre;"/>
    <path style="fill: rgb(0, 255, 0); white-space: pre;"/>
    <path d="M 17.615 148.774 L 18.281 148.774 L 18.281 156.902 L 17.615 156.902 L 17.615 148.774 Z M 64.609 148.774 L 65.274 148.774 L 65.274 156.902 L 64.609 156.902 L 64.609 148.774 Z M 434.72 148.774 L 435.385 148.774 L 435.385 156.902 L 434.72 156.902 L 434.72 148.774 Z M 481.713 148.774 L 482.379 148.774 L 482.379 156.902 L 481.713 156.902 L 481.713 148.774 Z" style="fill: rgb(0, 255, 0); white-space: pre;"/>
    <path style="fill: rgb(0, 255, 0); white-space: pre;"/>
    <path d="M 17.615 158.567 L 18.281 158.567 L 18.281 166.694 L 17.615 166.694 L 17.615 158.567 Z M 64.609 158.567 L 65.274 158.567 L 65.274 166.694 L 64.609 166.694 L 64.609 158.567 Z M 69.144 162.239 L 72.493 162.239 L 72.493 162.963 L 69.144 162.963 L 69.144 162.239 Z M 75.017 162.239 L 78.366 162.239 L 78.366 162.963 L 75.017 162.963 L 75.017 162.239 Z M 80.894 162.239 L 84.243 162.239 L 84.243 162.963 L 80.894 162.963 L 80.894 162.239 Z M 86.766 162.239 L 90.115 162.239 L 90.115 162.963 L 86.766 162.963 L 86.766 162.239 Z M 92.643 162.239 L 95.993 162.239 L 95.993 162.963 L 92.643 162.963 L 92.643 162.239 Z M 98.516 162.239 L 101.865 162.239 L 101.865 162.963 L 98.516 162.963 L 98.516 162.239 Z M 104.393 162.239 L 107.742 162.239 L 107.742 162.963 L 104.393 162.963 L 104.393 162.239 Z M 110.265 162.239 L 113.615 162.239 L 113.615 162.963 L 110.265 162.963 L 110.265 162.239 Z M 116.143 162.239 L 119.492 162.239 L 119.492 162.963 L 116.143 162.963 L 116.143 162.239 Z M 122.015 162.239 L 125.365 162.239 L 125.365 162.963 L 122.015 162.963 L 122.015 162.239 Z M 127.892 162.239 L 131.241 162.239 L 131.241 162.963 L 127.892 162.963 L 127.892 162.239 Z M 133.765 162.239 L 137.114 162.239 L 137.114 162.963 L 133.765 162.963 L 133.765 162.239 Z M 139.642 162.239 L 142.991 162.239 L 142.991 162.963 L 139.642 162.963 L 139.642 162.239 Z M 145.515 162.239 L 148.864 162.239 L 148.864 162.963 L 145.515 162.963 L 145.515 162.239 Z M 151.392 162.239 L 154.74 162.239 L 154.74 162.963 L 151.392 162.963 L 151.392 162.239 Z M 157.264 162.239 L 160.613 162.239 L 160.613 162.963 L 157.264 162.963 L 157.264 162.239 Z M 163.141 162.239 L 166.49 162.239 L 166.49 162.963 L 163.141 162.963 L 163.141 162.239 Z M 169.014 162.239 L 172.363 162.239 L 172.363 162.963 L 169.014 162.963 L 169.014 162.239 Z M 174.887 162.239 L 178.235 162.239 L 178.235 162.963 L 174.887 162.963 L 174.887 162.239 Z M 180.764 162.239 L 184.112 162.239 L 184.112 162.963 L 180.764 162.963 L 180.764 162.239 Z M 186.636 162.239 L 189.985 162.239 L 189.985 162.963 L 186.636 162.963 L 186.636 162.239 Z M 192.513 162.239 L 195.862 162.239 L 195.862 162.963 L 192.513 162.963 L 192.513 162.239 Z M 198.386 162.239 L 201.734 162.239 L 201.734 162.963 L 198.386 162.963 L 198.386 162.239 Z M 204.263 162.239 L 207.611 162.239 L 207.611 162.963 L 204.263 162.963 L 204.263 162.239 Z M 210.135 162.239 L 213.484 162.239 L 213.484 162.963 L 210.135 162.963 L 210.135 162.239 Z M 216.012 162.239 L 219.361 162.239 L 219.361 162.963 L 216.012 162.963 L 216.012 162.239 Z M 221.885 162.239 L 225.234 162.239 L 225.234 162.963 L 221.885 162.963 L 221.885 162.239 Z M 227.762 162.239 L 231.111 162.239 L 231.111 162.963 L 227.762 162.963 L 227.762 162.239 Z M 233.634 162.239 L 236.983 162.239 L 236.983 162.963 L 233.634 162.963 L 233.634 162.239 Z M 239.511 162.239 L 242.861 162.239 L 242.861 162.963 L 239.511 162.963 L 239.511 162.239 Z M 245.384 162.239 L 248.733 162.239 L 248.733 162.963 L 245.384 162.963 L 245.384 162.239 Z M 251.261 162.239 L 254.61 162.239 L 254.61 162.963 L 251.261 162.963 L 251.261 162.239 Z M 257.134 162.239 L 260.483 162.239 L 260.483 162.963 L 257.134 162.963 L 257.134 162.239 Z M 263.011 162.239 L 266.36 162.239 L 266.36 162.963 L 263.011 162.963 L 263.011 162.239 Z M 268.883 162.239 L 272.232 162.239 L 272.232 162.963 L 268.883 162.963 L 268.883 162.239 Z M 274.761 162.239 L 278.109 162.239 L 278.109 162.963 L 274.761 162.963 L 274.761 162.239 Z M 280.633 162.239 L 283.982 162.239 L 283.982 162.963 L 280.633 162.963 L 280.633 162.239 Z M 286.51 162.239 L 289.859 162.239 L 289.859 162.963 L 286.51 162.963 L 286.51 162.239 Z M 292.383 162.239 L 295.731 162.239 L 295.731 162.963 L 292.383 162.963 L 292.383 162.239 Z M 298.26 162.239 L 301.608 162.239 L 301.608 162.963 L 298.26 162.963 L 298.26 162.239 Z M 304.132 162.239 L 307.481 162.239 L 307.481 162.963 L 304.132 162.963 L 304.132 162.239 Z M 310.009 162.239 L 313.358 162.239 L 313.358 162.963 L 310.009 162.963 L 310.009 162.239 Z M 315.882 162.239 L 319.23 162.239 L 319.23 162.963 L 315.882 162.963 L 315.882 162.239 Z M 321.755 162.239 L 325.103 162.239 L 325.103 162.963 L 321.755 162.963 L 321.755 162.239 Z M 327.631 162.239 L 330.98 162.239 L 330.98 162.963 L 327.631 162.963 L 327.631 162.239 Z M 333.504 162.239 L 336.853 162.239 L 336.853 162.963 L 333.504 162.963 L 333.504 162.239 Z M 339.381 162.239 L 342.73 162.239 L 342.73 162.963 L 339.381 162.963 L 339.381 162.239 Z M 345.254 162.239 L 348.602 162.239 L 348.602 162.963 L 345.254 162.963 L 345.254 162.239 Z M 351.13 162.239 L 354.48 162.239 L 354.48 162.963 L 351.13 162.963 L 351.13 162.239 Z M 357.003 162.239 L 360.352 162.239 L 360.352 162.963 L 357.003 162.963 L 357.003 162.239 Z M 362.88 162.239 L 366.229 162.239 L 366.229 162.963 L 362.88 162.963 L 362.88 162.239 Z M 368.753 162.239 L 372.102 162.239 L 372.102 162.963 L 368.753 162.963 L 368.753 162.239 Z M 374.63 162.239 L 377.979 162.239 L 377.979 162.963 L 374.63 162.963 L 374.63 162.239 Z M 380.502 162.239 L 383.852 162.239 L 383.852 162.963 L 380.502 162.963 L 380.502 162.239 Z M 386.379 162.239 L 389.729 162.239 L 389.729 162.963 L 386.379 162.963 L 386.379 162.239 Z M 392.252 162.239 L 395.601 162.239 L 395.601 162.963 L 392.252 162.963 L 392.252 162.239 Z M 398.129 162.239 L 401.478 162.239 L 401.478 162.963 L 398.129 162.963 L 398.129 162.239 Z M 404.002 162.239 L 407.351 162.239 L 407.351 162.963 L 404.002 162.963 L 404.002 162.239 Z M 409.879 162.239 L 413.228 162.239 L 413.228 162.963 L 409.879 162.963 L 409.879 162.239 Z M 415.751 162.239 L 419.1 162.239 L 419.1 162.963 L 415.751 162.963 L 415.751 162.239 Z M 421.628 162.239 L 424.977 162.239 L 424.977 162.963 L 421.628 162.963 L 421.628 162.239 Z M 427.501 162.239 L 430.85 162.239 L 430.85 162.963 L 427.501 162.963 L 427.501 162.239 Z M 434.72 158.567 L 435.385 158.567 L 435.385 166.694 L 434.72 166.694 L 434.72 158.567 Z M 481.713 158.567 L 482.379 158.567 L 482.379 166.694 L 481.713 166.694 L 481.713 158.567 Z" style="fill: rgb(0, 255, 0); white-space: pre;"/>
    <path style="fill: rgb(0, 255, 0); white-space: pre;"/>
    <path d="M 20.083 176.3 L 19.436 176.584 L 15.813 168.515 L 16.469 168.241 L 20.083 176.3 Z M 64.609 168.359 L 65.274 168.359 L 65.274 176.486 L 64.609 176.486 L 64.609 168.359 Z M 434.72 168.359 L 435.385 168.359 L 435.385 176.486 L 434.72 176.486 L 434.72 168.359 Z M 483.525 168.241 L 484.142 168.515 L 480.568 176.584 L 479.951 176.31 L 483.525 168.241 Z" style="fill: rgb(0, 255, 0); white-space: pre;"/>
    <path style="fill: rgb(0, 255, 0); white-space: pre;"/>
    <path d="M 25.955 186.092 L 25.309 186.376 L 21.686 178.308 L 22.342 178.033 L 25.955 186.092 Z M 60.548 178.033 L 61.165 178.308 L 57.591 186.376 L 56.973 186.102 L 60.548 178.033 Z M 443.06 186.092 L 442.413 186.376 L 438.79 178.308 L 439.447 178.033 L 443.06 186.092 Z M 477.653 178.033 L 478.269 178.308 L 474.695 186.376 L 474.078 186.102 L 477.653 178.033 Z" style="fill: rgb(0, 255, 0); white-space: pre;"/>
    <path style="fill: rgb(0, 255, 0); white-space: pre;"/>
    <path d="M 30.379 189.206 L 29.84 189.206 L 28.675 187.747 L 29.742 187.747 L 30.379 189.206 Z M 33.896 191.615 L 37.244 191.615 L 37.244 192.339 L 33.896 192.339 L 33.896 191.615 Z M 39.768 191.615 L 43.117 191.615 L 43.117 192.339 L 39.768 192.339 L 39.768 191.615 Z M 45.645 191.615 L 48.994 191.615 L 48.994 192.339 L 45.645 192.339 L 45.645 191.615 Z M 52.811 187.943 L 53.672 187.943 L 53.368 190.91 L 52.811 190.91 L 52.811 187.943 Z M 447.483 189.206 L 446.944 189.206 L 445.779 187.747 L 446.846 187.747 L 447.483 189.206 Z M 451 191.615 L 454.349 191.615 L 454.349 192.339 L 451 192.339 L 451 191.615 Z M 456.873 191.615 L 460.221 191.615 L 460.221 192.339 L 456.873 192.339 L 456.873 191.615 Z M 462.75 191.615 L 466.098 191.615 L 466.098 192.339 L 462.75 192.339 L 462.75 191.615 Z M 469.915 187.943 L 470.776 187.943 L 470.473 190.91 L 469.915 190.91 L 469.915 187.943 Z" style="fill: rgb(0, 255, 0); white-space: pre;"/>
    <path style="fill: rgb(0, 255, 0); white-space: pre;"/>
  </g>
</svg>